<?xml version="1.0" standalone="no"?>
<!DOCTYPE svg PUBLIC "-//W3C//DTD SVG 20010904//EN"
 "http://www.w3.org/TR/2001/REC-SVG-20010904/DTD/svg10.dtd">
<svg version="1.0" xmlns="http://www.w3.org/2000/svg"
 width="144.000000pt" height="144.000000pt" viewBox="0 0 144.000000 144.000000"
 preserveAspectRatio="xMidYMid meet">
<metadata>
Created by potrace 1.11, written by Peter Selinger 2001-2013
</metadata>
<g transform="translate(0.000000,144.000000) scale(0.100000,-0.100000)"
fill="#000000" stroke="none">
<path d="M146 1433 c-39 -10 -94 -52 -117 -90 l-24 -38 0 -585 0 -585 24 -38
c33 -54 92 -88 161 -94 l57 -6 8 49 c15 105 113 359 198 513 l40 74 -51 -6
c-57 -7 -127 -38 -135 -62 -4 -8 -2 -26 5 -39 25 -56 -19 -102 -94 -100 -123
4 -141 151 -28 233 70 51 143 73 261 78 l107 6 63 91 c35 50 118 145 184 211
142 143 212 185 326 193 68 5 123 -1 147 -17 11 -6 -12 -126 -113 -602 -69
-327 -128 -600 -130 -607 -4 -11 20 -13 132 -10 129 3 141 5 179 30 23 15 52
44 65 65 l24 38 0 585 0 585 -24 38 c-13 21 -42 50 -65 65 l-41 27 -570 1
c-314 1 -579 0 -589 -3z"/>
<path d="M951 1064 c-54 -49 -153 -188 -203 -287 -31 -62 -28 -76 13 -77 9 0
48 -10 87 -23 l71 -23 15 70 c56 253 82 386 75 386 -4 0 -30 -21 -58 -46z"/>
<path d="M623 509 c-70 -170 -153 -442 -153 -499 0 -6 62 -10 154 -10 139 0
155 2 160 18 7 21 116 541 116 551 0 12 -120 51 -176 57 l-51 6 -50 -123z"/>
</g>
</svg>
